<svg width="25" height="26" viewBox="0 0 25 26" fill="none" xmlns="http://www.w3.org/2000/svg">
<g clip-path="url(#clip0_483_27521)">
<path d="M24.3012 13.2209C24.3012 12.2303 24.2208 11.5074 24.0469 10.7578H12.7353V15.2288H19.3749C19.2411 16.34 18.5182 18.0133 16.9118 19.1377L16.8893 19.2874L20.4658 22.058L20.7136 22.0828C22.9893 19.9811 24.3012 16.8888 24.3012 13.2209Z" fill="#4285F4"/>
<path d="M12.7348 25.001C15.9877 25.001 18.7185 23.93 20.7132 22.0827L16.9114 19.1376C15.894 19.8471 14.5286 20.3424 12.7348 20.3424C9.54888 20.3424 6.84483 18.2408 5.88091 15.3359L5.73963 15.3479L2.02072 18.226L1.97208 18.3612C3.95326 22.2968 8.02276 25.001 12.7348 25.001Z" fill="#34A853"/>
<path d="M5.8814 15.334C5.62706 14.5843 5.47987 13.7811 5.47987 12.9512C5.47987 12.1212 5.62706 11.318 5.86802 10.5684L5.86128 10.4087L2.09577 7.48438L1.97257 7.54298C1.15603 9.17615 0.6875 11.0101 0.6875 12.9512C0.6875 14.8922 1.15603 16.7261 1.97257 18.3593L5.8814 15.334Z" fill="#FBBC05"/>
<path d="M12.7348 5.56471C14.9971 5.56471 16.5231 6.54192 17.3933 7.35855L20.7935 4.03868C18.7052 2.09765 15.9877 0.90625 12.7348 0.90625C8.02276 0.90625 3.95326 3.6103 1.97208 7.54589L5.86753 10.5713C6.84483 7.66641 9.54888 5.56471 12.7348 5.56471Z" fill="#EB4335"/>
</g>
<defs>
<clipPath id="clip0_483_27521">
<rect width="23.625" height="24.1787" fill="white" transform="translate(0.6875 0.910156)"/>
</clipPath>
</defs>
</svg>
