<!DOCTYPE svg PUBLIC "-//W3C//DTD SVG 1.1//EN" "http://www.w3.org/Graphics/SVG/1.1/DTD/svg11.dtd">
<!-- Uploaded to: SVG Repo, www.svgrepo.com, Transformed by: SVG Repo Mixer Tools -->
<svg fill="#000000" height="67px" width="67px" version="1.1" id="Capa_1" xmlns="http://www.w3.org/2000/svg" xmlns:xlink="http://www.w3.org/1999/xlink" viewBox="-38.4 -38.4 396.80 396.80" xml:space="preserve">
<g id="SVGRepo_bgCarrier" stroke-width="0"/>
<g id="SVGRepo_tracerCarrier" stroke-linecap="round" stroke-linejoin="round"/>
<g id="SVGRepo_iconCarrier"> <g> <path d="M144.559,159.501l-36.729-21.668c-2.174-1.283-4.368-0.315-4.876,2.15c0,0-3.959,19.212,14.686,26.209 c18.644,6.993,27.513-1.241,27.513-1.241C146.998,163.237,146.732,160.785,144.559,159.501z"/> <path d="M212.169,137.833l-36.729,21.668c-2.174,1.283-2.439,3.735-0.593,5.45c0,0,8.869,8.234,27.514,1.241 c18.644-6.997,14.685-26.209,14.685-26.209C216.537,137.518,214.343,136.55,212.169,137.833z"/> <path d="M310,226.608h-22.738V83.392c0-5.522-4.478-10-10-10H42.738c-5.522,0-10,4.478-10,10v143.216H10c-5.522,0-10,4.478-10,10 s4.478,10,10,10h300c5.522,0,10-4.478,10-10S315.522,226.608,310,226.608z M52.738,226.608V93.392h214.523v133.216H52.738z"/> </g> </g>
</svg>